<svg xmlns="http://www.w3.org/2000/svg" viewBox="0 0 2505 3333" shape-rendering="geometricPrecision" text-rendering="geometricPrecision" image-rendering="optimizeQuality" fill-rule="evenodd" clip-rule="evenodd"><path fill="#fff" d="M2413 3067l-313-56-155 278c-113 140-184-90-216-170l-302-570c70-24 154-94 240-172 172 4 333-26 451-177l348 672 30 64c24 84 11 139-82 131zM1252 0c59-3 105 18 152 48 59 38 126 112 209 159 116 66 332-25 442 139 64 96 67 170 72 244 5 80 19 153 101 261 135 179 163 298 94 422-48 85-148 132-171 185-49 114 5 200-62 333-47 92-119 153-215 184-81 26-163-12-228 16-114 48-198 159-289 188-35 11-70 16-105 16s-70-5-105-16c-91-28-175-140-289-188-65-27-146 10-228-16-96-31-169-92-215-184-67-133-13-219-62-333-23-54-123-101-171-185-70-124-42-243 94-422 82-108 96-182 101-261 5-74 8-149 72-244 110-164 326-72 442-139 83-47 150-122 209-159 47-30 93-50 152-48zm-191 971l142 135 244-248c24-24 39-44 69-14l97 99c32 31 30 50 0 79l-354 348c-63 62-52 66-116 2l-243-242c-13-14-12-29 3-44l112-116c17-18 30-16 48 0zm191-531c363 0 657 294 657 657s-294 657-657 657-657-294-657-657 294-657 657-657zM91 3067l313-56 155 278c113 140 184-90 216-170l302-570c-70-24-154-94-240-172-172 4-333-26-451-177L38 2872l-30 64c-24 84-11 139 82 131z"/></svg>